HIERARCHY
ROOT Hips
{
	OFFSET 0.00000 0.00000 0.00000
	CHANNELS 6 Xposition Yposition Zposition Zrotation Yrotation Xrotation 
	JOINT LHipJoint
	{
		OFFSET 0 0 0
		CHANNELS 3 Zrotation Yrotation Xrotation
		JOINT LeftHip
		{
			OFFSET 1.56857 -1.73443 1.15205
			CHANNELS 3 Zrotation Yrotation Xrotation
			JOINT LeftKnee
			{
				OFFSET 2.39362 -6.57643 0.00000
				CHANNELS 3 Zrotation Yrotation Xrotation
				JOINT LeftAnkle
				{
					OFFSET 2.50952 -6.89485 0.00000
					CHANNELS 3 Zrotation Yrotation Xrotation
					JOINT LeftToe
					{
						OFFSET 0.17171 -0.47178 1.88682
						CHANNELS 3 Zrotation Yrotation Xrotation
						End Site
						{
							OFFSET 0.00000 -0.00000 0.98146
						}
					}
				}
			}
		}
	}
	JOINT RHipJoint
	{
		OFFSET 0 0 0
		CHANNELS 3 Zrotation Yrotation Xrotation
		JOINT RightHip
		{
			OFFSET -1.28153 -1.73443 1.15205
			CHANNELS 3 Zrotation Yrotation Xrotation
			JOINT RightKnee
			{
				OFFSET -2.26861 -6.23296 0.00000
				CHANNELS 3 Zrotation Yrotation Xrotation
				JOINT RightAnkle
				{
					OFFSET -2.54143 -6.98254 0.00000
					CHANNELS 3 Zrotation Yrotation Xrotation
					JOINT RightToe
					{
						OFFSET -0.23309 -0.64041 1.93119
						CHANNELS 3 Zrotation Yrotation Xrotation
						End Site
						{
							OFFSET -0.00000 -0.00000 1.02013
						}
					}
				}
			}
		}
	}
	JOINT lowerback
	{
		OFFSET 0 0 0
		CHANNELS 3 Zrotation Yrotation Xrotation
		JOINT Chest
		{
			OFFSET -0.07096 2.10460 -0.27878
			CHANNELS 3 Zrotation Yrotation Xrotation
			JOINT Chest2
			{
				OFFSET -0.00826 2.13662 -0.08279
				CHANNELS 3 Zrotation Yrotation Xrotation
				JOINT lowerneck
				{
					OFFSET 0 0 0
					CHANNELS 3 Zrotation Yrotation Xrotation
					JOINT Neck
					{
						OFFSET 0.03239 1.77799 0.24435
						CHANNELS 3 Zrotation Yrotation Xrotation
						JOINT Head
						{
							OFFSET 0.01026 1.74194 -0.49664
							CHANNELS 3 Zrotation Yrotation Xrotation
							End Site
							{
								OFFSET 0.00170 1.83057 -0.19653
							}
						}
					}
				}
				JOINT LeftCollar
				{
					OFFSET 0 0 0
					CHANNELS 3 Zrotation Yrotation Xrotation
					JOINT LeftShoulder
					{
						OFFSET 3.19178 1.35907 -0.31412
CHANNELS 3 Zrotation Xrotation Yrotation
						JOINT LeftElbow
						{
OFFSET 0 -4.852470 -0.000000
CHANNELS 3 Zrotation Xrotation Yrotation
							JOINT LeftWrist
							{
OFFSET 0 -3.555840 0.000000
CHANNELS 3 Zrotation Xrotation Yrotation
								JOINT lhand
								{
									OFFSET 0 0 0
CHANNELS 3 Zrotation Xrotation Yrotation
									JOINT LFingers
									{
OFFSET 0 -0.693200 0.000000
CHANNELS 3 Zrotation Xrotation Yrotation
										End Site
										{
OFFSET 0 -0.558880 0.000000
										}
									}
								}
								JOINT LThumb
								{
OFFSET 0 0.000000 0.000000
CHANNELS 3 Zrotation Xrotation Yrotation
									End Site
									{
OFFSET 0 -0.567410 0.567410
									}
								}
							}
						}
					}
				}
				JOINT RightCollar
				{
					OFFSET 0 0 0
					CHANNELS 3 Zrotation Yrotation Xrotation
					JOINT RightShoulder
					{
						OFFSET -3.28999 1.24191 -0.26899
CHANNELS 3 Zrotation Xrotation Yrotation
						JOINT RightElbow
						{
OFFSET 0 -4.644620 0.000000
CHANNELS 3 Zrotation Xrotation Yrotation
							JOINT RightWrist
							{
OFFSET 0 -3.407030 0.000000
CHANNELS 3 Zrotation Xrotation Yrotation
								JOINT rhand
								{
									OFFSET 0 0 0
CHANNELS 3 Zrotation Xrotation Yrotation
									JOINT RFingers
									{
OFFSET 0 -0.619580 0.000000
CHANNELS 3 Zrotation Xrotation Yrotation
										End Site
										{
OFFSET 0 -0.499520 0.000000
										}
									}
								}
								JOINT RThumb
								{
OFFSET 0 0.000000 0.000000
CHANNELS 3 Zrotation Xrotation Yrotation
									End Site
									{
OFFSET 0 -0.507150 0.507150
									}
								}
							}
						}
					}
				}
			}
		}
	}
}
MOTION
Frames: 16
Frame Time: .0083333
39.3119 16.6574 -15.9243 13.4874 50.2054 11.2409 0.0000 0.0000 0.0000 -6.9381 -7.5901 -10.3023 1.7324 8.2850 23.5831 0.7516 9.1534 -22.1470 0.3570 -3.8385 -10.6228 0.0000 0.0000 0.0000 34.9481 10.3493 7.3302 -0.9518 -6.2129 17.4033 -0.7894 4.8319 -15.8549 -4.7203 -13.0617 39.6001 -2.4687 1.7686 9.4572 -0.4312 2.2154 4.5461 0.7218 1.1131 -0.6560 -3.5965 -8.3303 -20.3424 9.7254 -13.9093 30.0612 1.9658 -4.8616 14.8830 -0.0000 0.0000 0.0000 13.5853 11.163 -48.7377 27.3376 -38.4992 9.7086 31.6315 -25.4766 18.7356 0.0 0.0 0.0 -7.1250 0.0 0.0 2.2178 8.273 1.877 -0.0000 0.0000 0.0000 -15.0822 10.5881 47.9358 -37.6453 -46.6113 -16.7074 -24.6696 -5.6301 26.127 0.0 0.0 0.0 7.1250 0.0 -0.0 5.9170 58.2396 -1.9208
39.4720 16.6402 -15.8806 13.3827 48.0268 11.5354 0.0000 0.0000 0.0000 -6.9047 -8.2953 -10.2795 1.3215 7.2806 20.5494 0.7840 9.0742 -22.3734 0.4082 -4.1017 -11.3628 0.0000 0.0000 0.0000 34.4860 10.4870 7.6709 -1.0188 -6.4214 18.0121 -0.8465 5.4314 -16.4079 -4.9363 -13.3117 40.5468 -2.9956 1.7964 9.5263 -0.7747 2.1917 4.3905 0.6596 1.0989 -0.8586 -2.4112 -7.8041 -20.7671 9.1097 -13.3940 30.3458 1.6156 -4.5686 14.8991 -0.0000 0.0000 0.0000 13.2995 13.9797 -46.8878 27.4998 -38.6517 9.8097 32.1084 -26.9358 18.1634 0.0 0.0 0.0 -7.1250 0.0 0.0 2.6038 8.8253 2.1758 -0.0000 0.0000 0.0000 -14.4516 8.8572 49.3211 -40.4874 -48.356 -18.8026 -23.7617 -5.9069 26.4098 0.0 0.0 0.0 7.1250 0.0 -0.0 7.0446 58.326 -2.3037
39.6466 16.6065 -15.8271 12.7895 45.7712 11.4379 0.0000 0.0000 0.0000 -6.4636 -8.5468 -10.2766 1.0019 6.3695 17.8604 0.8478 7.9085 -21.9927 0.5576 -4.7830 -13.2907 0.0000 0.0000 0.0000 34.5174 10.8272 8.1707 -1.0977 -6.6576 18.7048 -0.9413 6.0430 -17.3069 -4.8676 -13.2331 40.2474 -2.9462 2.0073 9.2794 -1.0604 2.4760 4.3573 0.3161 1.2414 -0.7528 -1.9792 -7.4945 -20.7621 9.2407 -13.1244 30.1587 1.6490 -4.4013 14.7736 0.0000 -0.0000 0.0000 13.0732 16.5143 -45.7694 27.8006 -38.932 9.9981 32.2732 -28.5271 17.6362 0.0 0.0 0.0 -7.1250 0.0 0.0 2.7836 9.3929 2.2948 0.0000 -0.0000 0.0000 -13.9579 7.5242 50.634 -44.0443 -50.2916 -21.5009 -23.3848 -6.356 26.7864 0.0 0.0 0.0 7.1250 0.0 -0.0 7.6364 58.6285 -2.5541
39.7845 16.5506 -15.7732 13.1033 43.0810 11.8121 0.0000 0.0000 0.0000 -6.5353 -8.3166 -10.5338 0.7945 5.6896 15.8865 0.7924 6.2917 -20.2482 1.0536 -6.5267 -18.3205 0.0000 0.0000 0.0000 34.1700 12.1630 8.9846 -1.1867 -6.9131 19.4583 -1.0497 6.3263 -18.2871 -4.6602 -12.9906 39.3334 -3.9302 2.5248 9.4920 -1.4321 3.0600 4.3053 0.4108 1.5268 -0.9649 -1.9660 -7.4349 -20.7782 9.4404 -13.1192 30.1623 1.7281 -4.3713 14.7999 0.0000 -0.0000 0.0000 12.8843 18.8324 -45.1182 28.1761 -39.2778 10.235 32.1516 -30.0524 17.2983 0.0 0.0 0.0 -7.1250 0.0 0.0 2.7516 9.8026 2.2456 0.0000 -0.0000 0.0000 -13.9005 6.781 52.0595 -48.6774 -52.4479 -25.1217 -24.3423 -6.8676 26.9271 0.0 0.0 0.0 7.1250 0.0 -0.0 6.6404 58.9959 -2.2775
39.9526 16.4990 -15.7278 12.7461 41.2165 11.6961 0.0000 0.0000 0.0000 -6.2538 -8.4357 -10.9618 0.6617 5.2025 14.4871 0.7668 3.8287 -18.3632 1.5978 -7.9726 -22.6310 0.0000 0.0000 0.0000 34.2140 12.8117 9.7021 -1.2658 -7.1314 20.1053 -1.1506 7.2340 -19.1601 -4.8337 -13.1940 40.0990 -3.8604 2.7383 9.5865 -1.6470 3.3388 4.3126 0.1162 1.6685 -1.0025 -1.8687 -7.3981 -20.5510 9.5852 -13.1142 29.8751 1.7728 -4.3666 14.6277 0.0000 -0.0000 0.0000 12.7594 20.9286 -44.7971 28.4636 -39.5395 10.4175 32.118 -31.3112 17.125 0.0 0.0 0.0 -7.1250 0.0 0.0 2.7533 10.0071 2.2356 0.0000 -0.0000 0.0000 -12.8433 4.844 52.6617 -51.1380 -53.4443 -27.0856 -23.3643 -6.3925 26.7999 0.0 0.0 0.0 7.1250 0.0 -0.0 7.6656 58.6377 -2.5657
40.1215 16.4372 -15.6841 12.6180 39.4341 11.8569 0.0000 0.0000 0.0000 -6.2102 -8.5666 -11.7203 0.5899 4.9173 13.6729 0.7920 0.3843 -16.9616 1.7563 -8.3388 -23.7481 0.0000 0.0000 0.0000 33.9984 13.4328 10.1649 -1.3539 -7.3657 20.8035 -1.2683 7.9095 -20.1380 -4.7990 -13.1538 39.9469 -3.9392 2.9434 9.5732 -1.9034 3.5986 4.3056 -0.1320 1.7990 -0.9980 -1.8131 -7.3370 -20.4419 9.8341 -13.0940 29.5642 1.8650 -4.3422 14.4857 0.0000 -0.0000 0.0000 12.7637 22.7772 -44.6581 28.6695 -39.7253 10.5488 31.9278 -32.0786 17.0101 0.0 0.0 0.0 -7.1250 0.0 0.0 2.6452 10.1746 2.1387 0.0000 -0.0000 0.0000 -12.1968 3.2486 53.4496 -54.5674 -54.6794 -29.8627 -23.7683 -6.0875 26.7351 0.0 0.0 0.0 7.1250 0.0 -0.0 7.1882 58.6639 -2.4093
40.2829 16.3637 -15.6391 12.4832 37.5959 11.9895 0.0000 0.0000 0.0000 -6.1665 -8.4395 -12.7028 0.5727 4.8464 13.4709 0.7206 -3.1670 -15.2756 2.0103 -8.8876 -25.4442 0.0000 0.0000 0.0000 33.7134 14.1864 10.4702 -1.4880 -7.7064 21.8258 -1.4179 8.8195 -21.3298 -4.6946 -13.0314 39.4860 -4.1418 3.2260 9.6223 -2.1038 3.9468 4.2949 -0.2674 1.9722 -1.0434 -1.9301 -7.2619 -20.2185 10.2650 -13.0284 29.1026 2.0673 -4.3059 14.2812 -0.0000 -0.0000 0.0000 12.867 24.4229 -44.8492 28.9052 -39.9363 10.6998 31.9049 -32.6391 16.9009 0.0 0.0 0.0 -7.1250 0.0 0.0 2.6449 10.3034 2.1315 -0.0000 -0.0000 0.0000 -11.5283 1.8537 54.1934 -58.1075 -55.7842 -32.7712 -24.9939 -5.6818 26.5188 0.0 0.0 0.0 7.1250 0.0 -0.0 5.7276 58.7232 -1.9256
40.4439 16.2835 -15.5911 11.8273 35.9420 11.6136 0.0000 0.0000 0.0000 -5.7446 -8.2279 -13.5445 0.5895 4.9157 13.6682 0.6103 -5.9238 -13.9353 2.1843 -9.2399 -26.5488 0.0000 0.0000 0.0000 33.9686 14.9784 10.8911 -1.6655 -8.1315 23.1142 -1.5374 10.0657 -22.2852 -4.6361 -12.9619 39.2262 -3.9189 3.5123 9.7940 -2.0838 4.3366 4.3830 -0.4206 2.1673 -1.0418 -2.1984 -7.2509 -19.8755 10.6647 -12.9686 28.4875 2.2787 -4.3074 13.9930 0.0000 0.0000 0.0000 12.8434 25.7779 -45.1773 29.0288 -40.0463 10.7793 31.962 -32.9184 16.9186 0.0 0.0 0.0 -7.1250 0.0 0.0 2.6797 10.2724 2.1613 0.0000 0.0000 0.0000 -11.5341 1.4598 54.7719 -63.6149 -57.1987 -37.3647 -25.3419 -5.7699 26.4635 0.0 0.0 0.0 7.1250 0.0 -0.0 5.3144 58.7465 -1.7891
40.5942 16.1965 -15.5488 11.3120 34.7712 11.3127 0.0000 0.0000 0.0000 -5.4154 -8.6174 -14.3335 0.6325 5.0888 14.1621 0.4870 -8.0170 -12.8168 1.8422 -8.5294 -24.3339 0.0000 0.0000 0.0000 34.3642 15.7479 11.2438 -1.8569 -8.5613 24.4325 -1.6361 10.7416 -23.0342 -4.2847 -12.5299 37.6335 -3.7843 3.6522 10.0968 -1.9750 4.5225 4.5287 -0.4183 2.2594 -1.0586 -2.1484 -7.2295 -19.9175 10.5076 -12.8661 28.1535 2.2177 -4.3014 13.8281 -0.0000 0.0000 0.0000 12.648 26.7803 -45.4332 28.9770 -40.0002 10.7459 31.9592 -33.0515 17.0376 0.0 0.0 0.0 -7.1250 0.0 0.0 2.6619 10.1372 2.1543 -0.0000 0.0000 0.0000 -11.012 -0.1534 55.2844 -67.1148 -57.9255 -40.3189 -25.9266 -5.4611 27.1076 0.0 0.0 0.0 7.1250 0.0 -0.0 4.9375 59.5596 -1.758
40.7513 16.1128 -15.5115 11.0480 33.7421 11.0238 0.0000 0.0000 0.0000 -5.3832 -9.8348 -14.4675 0.6689 5.2301 14.5659 0.2388 -8.4415 -9.8184 1.2169 -6.9975 -19.7080 0.0000 0.0000 0.0000 34.4759 16.3907 11.4790 -2.1033 -9.0780 26.0396 -1.7179 11.1834 -23.6317 -3.9481 -12.0911 36.0549 -3.7714 3.7243 10.6454 -1.8836 4.5949 4.6788 -0.3712 2.2953 -1.2090 -2.1118 -7.1904 -19.9827 10.2978 -12.7176 27.8115 2.1468 -4.2838 13.6583 -0.0000 0.0000 0.0000 12.4728 27.6225 -45.8395 28.8921 -39.9246 10.6914 32.2122 -33.1113 16.9682 0.0 0.0 0.0 -7.1250 0.0 0.0 2.8358 10.1682 2.2935 -0.0000 0.0000 0.0000 -11.2829 -0.7581 56.0439 -72.6590 -58.8327 -45.0411 -26.3557 -6.4632 26.0366 0.0 0.0 0.0 7.1250 0.0 -0.0 4.0001 58.534 -1.3252
40.9078 16.0326 -15.4767 10.8490 32.7314 10.5859 0.0000 0.0000 0.0000 -5.6424 -10.5437 -14.4928 0.8644 5.9285 16.5770 0.1365 -9.5424 -8.8549 1.2887 -7.1931 -20.2887 0.0000 0.0000 0.0000 34.3999 16.8029 11.4145 -2.5363 -9.9037 28.6654 -1.8419 11.5565 -24.4859 -3.4640 -11.4108 33.6782 -3.7125 3.7841 11.3092 -1.8156 4.6570 4.9703 -0.3751 2.3262 -1.2675 -2.2735 -7.1358 -19.8679 10.3850 -12.5269 27.1128 2.2322 -4.2548 13.3420 0.0000 -0.0000 0.0000 12.3405 28.1058 -46.2658 28.7864 -39.8302 10.6237 32.2519 -33.0458 16.7976 0.0 0.0 0.0 -7.1250 0.0 0.0 2.8847 10.3556 2.3222 0.0000 -0.0000 0.0000 -11.3357 -1.4826 56.6519 -77.7827 -59.4284 -49.4398 -26.7322 -7.0173 25.7865 0.0 0.0 0.0 7.1250 0.0 -0.0 3.4795 58.357 -1.1377
41.0636 15.9579 -15.4327 10.5074 31.8419 9.9722 0.0000 0.0000 0.0000 -5.7711 -10.4700 -14.8579 1.1659 6.8545 19.2851 -0.0137 -11.8909 -8.1481 0.7358 -5.4799 -15.2827 0.0000 0.0000 0.0000 34.4556 17.1243 11.2018 -2.9432 -10.6026 30.9509 -1.7580 11.6254 -23.9447 -3.2071 -11.0229 32.3572 -3.5477 3.8026 11.9789 -1.6734 4.6813 5.3319 -0.3538 2.3382 -1.2516 -2.1760 -7.0109 -19.9019 10.1356 -12.2461 26.6337 2.1609 -4.1858 13.0959 0.0000 -0.0000 0.0000 12.0358 28.3336 -46.5389 28.5698 -39.6355 10.4851 32.2638 -33.1313 16.641 0.0 0.0 0.0 -7.1250 0.0 0.0 2.9135 10.5327 2.335 0.0000 -0.0000 0.0000 -11.1876 -1.0883 56.2816 -84.6866 -59.8931 -55.4002 -26.1307 -7.3198 25.756 0.0 0.0 0.0 7.1250 0.0 -0.0 4.1408 58.1854 -1.3373
41.2240 15.8941 -15.3782 10.1477 31.0280 9.4056 0.0000 0.0000 0.0000 -5.8285 -9.6060 -15.7979 1.6015 7.9815 22.6579 -0.1895 -14.9068 -8.1958 0.1838 -2.7610 -7.6142 0.0000 0.0000 0.0000 34.4272 17.3630 10.6817 -3.5487 -11.5343 34.1039 -1.7005 11.3925 -23.5376 -2.7038 -10.1994 29.6249 -3.4346 3.7925 12.5546 -1.4939 4.6677 5.6604 -0.2548 2.3300 -1.2241 -1.8136 -6.9090 -20.2792 9.5517 -12.0451 26.5803 1.9012 -4.1329 13.0586 0.0000 -0.0000 0.0000 11.6089 28.4211 -46.7542 28.2534 -39.3485 10.284 32.7074 -33.4918 16.4528 0.0 0.0 0.0 -7.1250 0.0 0.0 3.2284 10.6645 2.5794 0.0000 -0.0000 0.0000 -11.0896 -1.523 56.6471 -89.2484 -59.9979 -59.3491 -26.5785 -7.7289 26.0631 0.0 0.0 0.0 7.1250 0.0 -0.0 3.7600 58.6142 -1.2528
41.3784 15.8450 -15.3149 9.8384 30.0229 8.9416 0.0000 0.0000 0.0000 -6.1998 -11.0373 -15.1260 1.8780 8.6073 24.5744 0.0433 -14.9819 -10.9956 0.0202 -0.9181 -2.5234 0.0000 0.0000 0.0000 34.2436 17.7962 9.8891 -4.2662 -12.5065 37.5481 -1.5491 11.8757 -22.5701 -2.3024 -9.4694 27.2750 -3.4503 3.8788 13.0702 -1.3516 4.7663 5.9341 -0.1372 2.3763 -1.2289 -1.7469 -6.7984 -20.4849 9.3781 -11.8384 26.3679 1.8523 -4.0665 12.9786 -0.0000 0.0000 0.0000 11.2522 28.3481 -46.997 27.9243 -39.0465 10.076 33.1853 -34.2373 16.3621 0.0 0.0 0.0 -7.1250 0.0 0.0 3.5526 10.6773 2.8385 -0.0000 0.0000 0.0000 -11.058 -2.7122 57.0471 -91.2077 -59.9945 -61.0458 -26.7291 -8.6837 25.6719 0.0 0.0 0.0 7.1250 0.0 -0.0 3.4391 58.2346 -1.1143
41.5150 15.8134 -15.2457 9.5888 28.8148 8.6276 0.0000 0.0000 0.0000 -6.5337 -11.7889 -14.3949 2.0403 8.9495 25.6374 0.8873 -8.2073 -16.9177 2.5742 -9.9716 -28.8849 0.0000 0.0000 0.0000 33.4742 17.8947 7.7319 -5.3173 -13.7324 42.1760 -1.3717 12.2403 -21.3862 -1.3456 -7.3439 20.7384 -3.7869 4.0277 13.5455 -1.1819 4.9068 6.1520 0.1795 2.4374 -1.2978 -2.2026 -6.6534 -20.6112 9.7357 -11.5525 26.0112 2.1077 -3.9566 12.8974 0.0000 -0.0000 0.0000 10.6082 28.0843 -46.7921 27.5568 -38.705 9.8453 33.3475 -35.1064 16.284 0.0 0.0 0.0 -7.1250 0.0 0.0 3.6693 10.7364 2.9277 0.0000 -0.0000 0.0000 -8.9161 -5.884 57.6524 -86.8216 -59.9618 -57.2478 -26.7099 -8.4814 25.4802 0.0 0.0 0.0 7.1250 0.0 -0.0 3.3885 58.0267 -1.081
41.6818 15.8023 -15.1701 9.6783 28.1168 8.6910 0.0000 0.0000 0.0000 -7.2993 -11.9945 -13.7810 2.0903 9.0516 25.9570 0.9758 -5.4764 -17.6405 2.5452 -9.9196 -28.7166 0.0000 0.0000 0.0000 32.1523 17.9792 5.4662 -6.2416 -14.6585 45.9440 -0.8722 13.1827 -17.8251 -1.6892 -8.1862 23.2810 -3.9927 3.7848 13.6475 -1.1352 4.5623 6.2915 0.3932 2.2595 -1.2126 -1.9699 -6.3586 -20.8688 9.1646 -11.0635 26.2045 1.9355 -3.7821 12.9296 0.0000 -0.0000 0.0000 9.6207 27.8829 -45.9314 27.1670 -38.338 9.6025 33.3129 -35.8439 16.1899 0.0 0.0 0.0 -7.1250 0.0 0.0 3.6599 10.8519 2.9115 0.0000 -0.0000 0.0000 -10.7566 -3.2408 57.7437 -95.4876 -59.8859 -64.7506 -26.1714 -9.7665 24.3032 0.0 0.0 0.0 7.1250 0.0 -0.0 3.5586 56.6546 -1.0175
